<svg width="595" height="564" viewBox="0 0 595 564" fill="none" xmlns="http://www.w3.org/2000/svg">
<g clip-path="url(#paint0_diamond_533_428_clip_path)" data-figma-skip-parse="true"><g transform="matrix(0 0.282 -0.105908 0 459.542 282)"><rect x="0" y="0" width="1001.31" height="59.2483" fill="url(#paint0_diamond_533_428)" opacity="1" shape-rendering="crispEdges"/><rect x="0" y="0" width="1001.31" height="59.2483" transform="scale(1 -1)" fill="url(#paint0_diamond_533_428)" opacity="1" shape-rendering="crispEdges"/><rect x="0" y="0" width="1001.31" height="59.2483" transform="scale(-1 1)" fill="url(#paint0_diamond_533_428)" opacity="1" shape-rendering="crispEdges"/><rect x="0" y="0" width="1001.31" height="59.2483" transform="scale(-1)" fill="url(#paint0_diamond_533_428)" opacity="1" shape-rendering="crispEdges"/></g></g><rect x="453.636" width="11.8115" height="564" data-figma-gradient-fill="{&#34;type&#34;:&#34;GRADIENT_DIAMOND&#34;,&#34;stops&#34;:[{&#34;color&#34;:{&#34;r&#34;:1.0,&#34;g&#34;:1.0,&#34;b&#34;:1.0,&#34;a&#34;:1.0},&#34;position&#34;:0.0},{&#34;color&#34;:{&#34;r&#34;:0.92491734027862549,&#34;g&#34;:0.92491734027862549,&#34;b&#34;:0.92491734027862549,&#34;a&#34;:0.029999999329447746},&#34;position&#34;:1.0}],&#34;stopsVar&#34;:[{&#34;color&#34;:{&#34;r&#34;:1.0,&#34;g&#34;:1.0,&#34;b&#34;:1.0,&#34;a&#34;:1.0},&#34;position&#34;:0.0},{&#34;color&#34;:{&#34;r&#34;:0.92491734027862549,&#34;g&#34;:0.92491734027862549,&#34;b&#34;:0.92491734027862549,&#34;a&#34;:0.029999999329447746},&#34;position&#34;:1.0}],&#34;transform&#34;:{&#34;m00&#34;:7.2324697000740565e-16,&#34;m01&#34;:-211.81590270996094,&#34;m02&#34;:565.4499511718750,&#34;m10&#34;:564.0,&#34;m11&#34;:-6.8490465780931230e-15,&#34;m12&#34;:-3.1301479149533490e-14},&#34;opacity&#34;:1.0,&#34;blendMode&#34;:&#34;NORMAL&#34;,&#34;visible&#34;:true}"/>
<g clip-path="url(#paint1_diamond_533_428_clip_path)" data-figma-skip-parse="true"><g transform="matrix(0 0.282 -0.105908 0 179.019 282)"><rect x="0" y="0" width="1001.31" height="59.2483" fill="url(#paint1_diamond_533_428)" opacity="1" shape-rendering="crispEdges"/><rect x="0" y="0" width="1001.31" height="59.2483" transform="scale(1 -1)" fill="url(#paint1_diamond_533_428)" opacity="1" shape-rendering="crispEdges"/><rect x="0" y="0" width="1001.31" height="59.2483" transform="scale(-1 1)" fill="url(#paint1_diamond_533_428)" opacity="1" shape-rendering="crispEdges"/><rect x="0" y="0" width="1001.31" height="59.2483" transform="scale(-1)" fill="url(#paint1_diamond_533_428)" opacity="1" shape-rendering="crispEdges"/></g></g><rect x="173.113" width="11.8115" height="564" data-figma-gradient-fill="{&#34;type&#34;:&#34;GRADIENT_DIAMOND&#34;,&#34;stops&#34;:[{&#34;color&#34;:{&#34;r&#34;:1.0,&#34;g&#34;:1.0,&#34;b&#34;:1.0,&#34;a&#34;:1.0},&#34;position&#34;:0.0},{&#34;color&#34;:{&#34;r&#34;:0.92491734027862549,&#34;g&#34;:0.92491734027862549,&#34;b&#34;:0.92491734027862549,&#34;a&#34;:0.029999999329447746},&#34;position&#34;:1.0}],&#34;stopsVar&#34;:[{&#34;color&#34;:{&#34;r&#34;:1.0,&#34;g&#34;:1.0,&#34;b&#34;:1.0,&#34;a&#34;:1.0},&#34;position&#34;:0.0},{&#34;color&#34;:{&#34;r&#34;:0.92491734027862549,&#34;g&#34;:0.92491734027862549,&#34;b&#34;:0.92491734027862549,&#34;a&#34;:0.029999999329447746},&#34;position&#34;:1.0}],&#34;transform&#34;:{&#34;m00&#34;:7.2324697000740565e-16,&#34;m01&#34;:-211.81590270996094,&#34;m02&#34;:284.9265136718750,&#34;m10&#34;:564.0,&#34;m11&#34;:-6.8490465780931230e-15,&#34;m12&#34;:-3.1301479149533490e-14},&#34;opacity&#34;:1.0,&#34;blendMode&#34;:&#34;NORMAL&#34;,&#34;visible&#34;:true}"/>
<rect y="229.955" width="6.27487" height="307.099" fill="#515151"/>
<rect y="221.835" width="6.27487" height="307.099" fill="url(#paint2_linear_533_428)"/>
<rect x="360.621" y="48.3535" width="6.27487" height="384.243" fill="url(#paint3_linear_533_428)"/>
<rect x="594.636" y="421.893" width="11.8115" height="594.636" transform="rotate(90 594.636 421.893)" fill="url(#paint4_linear_533_428)"/>
<path d="M232.859 484.639L234.71 479.599L234.737 481.087L230.564 470.82H232.496L235.614 478.748H235.047L238.023 470.82H239.901L234.622 484.639H232.859ZM240.057 480.387V478.819C240.412 478.884 240.68 478.875 240.863 478.793C241.052 478.704 241.191 478.545 241.28 478.314C241.374 478.084 241.454 477.786 241.519 477.42C241.619 476.882 241.705 476.271 241.776 475.586C241.853 474.895 241.921 474.148 241.98 473.345C242.039 472.541 242.092 471.7 242.139 470.82H249.013V480.387H247.153V472.565H243.804C243.769 473.032 243.728 473.528 243.68 474.053C243.639 474.573 243.592 475.09 243.539 475.604C243.486 476.117 243.429 476.599 243.37 477.048C243.311 477.496 243.249 477.88 243.184 478.199C243.066 478.837 242.892 479.345 242.662 479.723C242.437 480.095 242.118 480.334 241.705 480.44C241.292 480.553 240.742 480.535 240.057 480.387ZM251.816 480.387V478.429H253.774V480.387H251.816ZM260.114 480.387V467.631H261.788L266.412 477.225L271.01 467.631H272.702V480.378H270.948V471.653L266.829 480.387H265.987L261.859 471.653V480.387H260.114ZM279.427 480.653C278.476 480.653 277.641 480.446 276.92 480.033C276.206 479.614 275.647 479.032 275.246 478.288C274.85 477.538 274.652 476.67 274.652 475.683C274.652 474.638 274.847 473.731 275.237 472.964C275.633 472.196 276.182 471.602 276.885 471.183C277.587 470.764 278.405 470.554 279.339 470.554C280.313 470.554 281.143 470.781 281.828 471.236C282.513 471.685 283.024 472.326 283.36 473.159C283.703 473.991 283.839 474.98 283.768 476.126H281.916V475.453C281.905 474.343 281.692 473.522 281.279 472.99C280.871 472.459 280.248 472.193 279.409 472.193C278.482 472.193 277.785 472.485 277.319 473.07C276.852 473.655 276.619 474.499 276.619 475.604C276.619 476.655 276.852 477.47 277.319 478.049C277.785 478.621 278.459 478.908 279.339 478.908C279.917 478.908 280.416 478.778 280.836 478.518C281.261 478.252 281.592 477.874 281.828 477.384L283.644 477.96C283.272 478.816 282.708 479.481 281.952 479.953C281.196 480.42 280.354 480.653 279.427 480.653ZM276.017 476.126V474.682H282.847V476.126H276.017ZM285.047 482.513V478.899C285.572 478.899 285.947 478.725 286.172 478.376C286.402 478.022 286.585 477.423 286.721 476.578C286.804 476.064 286.872 475.518 286.925 474.939C286.984 474.36 287.034 473.734 287.075 473.061C287.117 472.382 287.158 471.635 287.199 470.82H294.056V478.899H294.995V482.513H293.241V480.387H286.81V482.513H285.047ZM287.695 478.899H292.196V472.308H288.847C288.823 472.698 288.797 473.1 288.767 473.513C288.744 473.926 288.714 474.337 288.679 474.744C288.649 475.152 288.614 475.542 288.572 475.914C288.531 476.286 288.484 476.622 288.431 476.923C288.36 477.39 288.274 477.78 288.174 478.093C288.079 478.406 287.92 478.675 287.695 478.899ZM301.003 480.653C300.052 480.653 299.216 480.446 298.496 480.033C297.781 479.614 297.223 479.032 296.821 478.288C296.426 477.538 296.228 476.67 296.228 475.683C296.228 474.638 296.423 473.731 296.813 472.964C297.208 472.196 297.758 471.602 298.46 471.183C299.163 470.764 299.981 470.554 300.914 470.554C301.889 470.554 302.718 470.781 303.403 471.236C304.088 471.685 304.599 472.326 304.936 473.159C305.279 473.991 305.414 474.98 305.343 476.126H303.492V475.453C303.48 474.343 303.268 473.522 302.854 472.99C302.447 472.459 301.824 472.193 300.985 472.193C300.058 472.193 299.361 472.485 298.894 473.07C298.428 473.655 298.195 474.499 298.195 475.604C298.195 476.655 298.428 477.47 298.894 478.049C299.361 478.621 300.034 478.908 300.914 478.908C301.493 478.908 301.992 478.778 302.411 478.518C302.836 478.252 303.167 477.874 303.403 477.384L305.219 477.96C304.847 478.816 304.283 479.481 303.527 479.953C302.772 480.42 301.93 480.653 301.003 480.653ZM297.592 476.126V474.682H304.422V476.126H297.592ZM311.822 480.653C310.907 480.653 310.139 480.432 309.519 479.989C308.899 479.54 308.429 478.934 308.111 478.173C307.792 477.411 307.632 476.551 307.632 475.595C307.632 474.638 307.789 473.779 308.102 473.017C308.421 472.255 308.887 471.656 309.501 471.219C310.121 470.776 310.883 470.554 311.787 470.554C312.685 470.554 313.458 470.776 314.108 471.219C314.763 471.656 315.268 472.255 315.623 473.017C315.977 473.773 316.154 474.632 316.154 475.595C316.154 476.551 315.977 477.414 315.623 478.181C315.274 478.943 314.775 479.546 314.126 479.989C313.482 480.432 312.714 480.653 311.822 480.653ZM307.322 484.639V470.82H308.97V477.703H309.182V484.639H307.322ZM311.565 478.979C312.156 478.979 312.643 478.828 313.027 478.527C313.417 478.226 313.706 477.821 313.895 477.313C314.09 476.799 314.188 476.227 314.188 475.595C314.188 474.969 314.09 474.402 313.895 473.894C313.706 473.386 313.414 472.981 313.018 472.68C312.623 472.379 312.118 472.228 311.503 472.228C310.925 472.228 310.446 472.37 310.068 472.654C309.696 472.937 309.419 473.333 309.236 473.841C309.058 474.349 308.97 474.933 308.97 475.595C308.97 476.256 309.058 476.841 309.236 477.349C309.413 477.857 309.693 478.255 310.077 478.545C310.461 478.834 310.957 478.979 311.565 478.979ZM322.265 480.653C321.308 480.653 320.478 480.437 319.776 480.006C319.073 479.575 318.529 478.982 318.146 478.226C317.768 477.464 317.579 476.587 317.579 475.595C317.579 474.597 317.774 473.72 318.163 472.964C318.553 472.202 319.099 471.611 319.802 471.192C320.505 470.767 321.326 470.554 322.265 470.554C323.222 470.554 324.051 470.77 324.754 471.201C325.457 471.632 326 472.225 326.384 472.981C326.768 473.737 326.96 474.608 326.96 475.595C326.96 476.593 326.765 477.473 326.375 478.235C325.991 478.99 325.448 479.584 324.745 480.015C324.042 480.44 323.216 480.653 322.265 480.653ZM322.265 478.908C323.18 478.908 323.862 478.601 324.311 477.987C324.766 477.366 324.993 476.569 324.993 475.595C324.993 474.597 324.763 473.799 324.302 473.203C323.848 472.6 323.168 472.299 322.265 472.299C321.645 472.299 321.134 472.441 320.732 472.724C320.331 473.002 320.032 473.389 319.838 473.885C319.643 474.375 319.545 474.945 319.545 475.595C319.545 476.599 319.776 477.402 320.236 478.004C320.697 478.607 321.373 478.908 322.265 478.908ZM328.898 480.387V470.82H333.106C333.383 470.82 333.661 470.838 333.938 470.873C334.216 470.903 334.461 470.947 334.674 471.006C335.158 471.142 335.571 471.413 335.914 471.821C336.256 472.222 336.428 472.76 336.428 473.433C336.428 473.817 336.369 474.142 336.25 474.408C336.132 474.667 335.97 474.892 335.763 475.081C335.669 475.164 335.568 475.237 335.462 475.302C335.356 475.367 335.249 475.418 335.143 475.453C335.362 475.488 335.577 475.565 335.79 475.683C336.115 475.855 336.38 476.103 336.587 476.427C336.8 476.746 336.906 477.174 336.906 477.712C336.906 478.356 336.749 478.896 336.436 479.333C336.123 479.764 335.681 480.059 335.108 480.219C334.883 480.284 334.629 480.328 334.346 480.352C334.068 480.375 333.791 480.387 333.513 480.387H328.898ZM330.776 478.926H333.398C333.522 478.926 333.664 478.914 333.823 478.89C333.983 478.866 334.124 478.834 334.248 478.793C334.514 478.71 334.703 478.559 334.815 478.341C334.933 478.122 334.993 477.889 334.993 477.641C334.993 477.304 334.904 477.036 334.727 476.835C334.55 476.628 334.325 476.495 334.053 476.436C333.935 476.395 333.805 476.371 333.664 476.365C333.522 476.359 333.401 476.357 333.301 476.357H330.776V478.926ZM330.776 474.868H332.849C333.02 474.868 333.194 474.859 333.371 474.842C333.549 474.818 333.702 474.78 333.832 474.727C334.062 474.638 334.234 474.49 334.346 474.284C334.458 474.071 334.514 473.841 334.514 473.593C334.514 473.321 334.452 473.079 334.328 472.866C334.204 472.654 334.018 472.506 333.77 472.423C333.599 472.364 333.401 472.332 333.176 472.326C332.958 472.314 332.819 472.308 332.76 472.308H330.776V474.868ZM341.384 480.653C340.675 480.653 340.082 480.523 339.604 480.263C339.125 479.997 338.762 479.649 338.514 479.218C338.272 478.781 338.151 478.302 338.151 477.783C338.151 477.298 338.236 476.873 338.408 476.507C338.579 476.141 338.833 475.831 339.169 475.577C339.506 475.317 339.92 475.107 340.41 474.948C340.835 474.824 341.316 474.715 341.854 474.62C342.391 474.526 342.955 474.437 343.546 474.354C344.142 474.272 344.733 474.189 345.317 474.106L344.644 474.478C344.656 473.728 344.496 473.173 344.166 472.813C343.841 472.447 343.28 472.264 342.483 472.264C341.981 472.264 341.52 472.382 341.101 472.618C340.681 472.849 340.389 473.232 340.224 473.77L338.496 473.238C338.732 472.417 339.181 471.765 339.843 471.281C340.51 470.796 341.396 470.554 342.5 470.554C343.357 470.554 344.101 470.702 344.733 470.997C345.371 471.286 345.837 471.747 346.132 472.379C346.286 472.692 346.38 473.023 346.416 473.371C346.451 473.72 346.469 474.095 346.469 474.496V480.387H344.83V478.199L345.149 478.483C344.753 479.215 344.248 479.761 343.634 480.121C343.026 480.476 342.276 480.653 341.384 480.653ZM341.712 479.138C342.238 479.138 342.689 479.047 343.067 478.864C343.445 478.675 343.749 478.435 343.98 478.146C344.21 477.857 344.361 477.555 344.432 477.242C344.532 476.959 344.588 476.64 344.6 476.286C344.618 475.931 344.626 475.648 344.626 475.435L345.229 475.657C344.644 475.745 344.113 475.825 343.634 475.896C343.156 475.967 342.722 476.038 342.332 476.108C341.948 476.173 341.606 476.253 341.304 476.348C341.05 476.436 340.823 476.543 340.622 476.667C340.427 476.791 340.271 476.941 340.153 477.118C340.041 477.296 339.984 477.511 339.984 477.765C339.984 478.013 340.046 478.243 340.171 478.456C340.295 478.663 340.484 478.828 340.737 478.952C340.991 479.076 341.316 479.138 341.712 479.138Z" fill="white"/>
<path d="M229.536 220.726L231.387 215.685L231.414 217.173L227.242 206.906H229.173L232.291 214.835H231.724L234.701 206.906H236.579L231.299 220.726H229.536ZM236.734 216.474V214.906C237.089 214.971 237.358 214.962 237.541 214.879C237.73 214.79 237.868 214.631 237.957 214.401C238.051 214.17 238.131 213.872 238.196 213.506C238.297 212.969 238.382 212.357 238.453 211.672C238.53 210.981 238.598 210.234 238.657 209.431C238.716 208.628 238.769 207.786 238.816 206.906H245.691V216.474H243.83V208.651H240.482C240.446 209.118 240.405 209.614 240.358 210.14C240.316 210.659 240.269 211.176 240.216 211.69C240.163 212.204 240.107 212.685 240.048 213.134C239.989 213.583 239.927 213.967 239.862 214.286C239.743 214.923 239.569 215.431 239.339 215.809C239.115 216.181 238.796 216.42 238.382 216.527C237.969 216.639 237.42 216.621 236.734 216.474ZM248.494 216.474V214.516H250.451V216.474H248.494ZM256.791 216.474V203.717H265.109V205.462H258.642V208.536H261.947C262.065 208.536 262.215 208.542 262.399 208.554C262.588 208.56 262.765 208.575 262.93 208.598C263.621 208.681 264.203 208.905 264.675 209.272C265.154 209.638 265.514 210.101 265.756 210.662C266.004 211.223 266.128 211.838 266.128 212.505C266.128 213.172 266.007 213.787 265.765 214.348C265.523 214.909 265.162 215.372 264.684 215.738C264.212 216.105 263.627 216.329 262.93 216.412C262.765 216.435 262.59 216.453 262.407 216.465C262.224 216.471 262.071 216.474 261.947 216.474H256.791ZM258.642 214.728H261.876C261.994 214.728 262.124 214.723 262.266 214.711C262.413 214.699 262.552 214.681 262.682 214.658C263.255 214.539 263.656 214.268 263.887 213.843C264.123 213.417 264.241 212.972 264.241 212.505C264.241 212.033 264.123 211.587 263.887 211.167C263.656 210.742 263.255 210.47 262.682 210.352C262.552 210.323 262.413 210.305 262.266 210.299C262.124 210.287 261.994 210.281 261.876 210.281H258.642V214.728ZM270.601 216.739C269.892 216.739 269.299 216.609 268.82 216.35C268.342 216.084 267.979 215.735 267.731 215.304C267.488 214.867 267.367 214.389 267.367 213.869C267.367 213.385 267.453 212.96 267.624 212.594C267.796 212.227 268.049 211.917 268.386 211.663C268.723 211.404 269.136 211.194 269.626 211.034C270.052 210.91 270.533 210.801 271.07 210.707C271.608 210.612 272.172 210.524 272.762 210.441C273.359 210.358 273.949 210.276 274.534 210.193L273.861 210.565C273.873 209.815 273.713 209.26 273.382 208.899C273.058 208.533 272.497 208.35 271.699 208.35C271.197 208.35 270.737 208.468 270.317 208.705C269.898 208.935 269.606 209.319 269.44 209.856L267.713 209.325C267.949 208.504 268.398 207.851 269.059 207.367C269.727 206.883 270.613 206.641 271.717 206.641C272.573 206.641 273.317 206.788 273.949 207.083C274.587 207.373 275.054 207.834 275.349 208.465C275.503 208.778 275.597 209.109 275.632 209.458C275.668 209.806 275.686 210.181 275.686 210.583V216.474H274.047V214.286L274.366 214.569C273.97 215.301 273.465 215.848 272.851 216.208C272.243 216.562 271.493 216.739 270.601 216.739ZM270.929 215.225C271.454 215.225 271.906 215.133 272.284 214.95C272.662 214.761 272.966 214.522 273.196 214.232C273.427 213.943 273.577 213.642 273.648 213.329C273.749 213.045 273.805 212.726 273.816 212.372C273.834 212.018 273.843 211.734 273.843 211.522L274.445 211.743C273.861 211.832 273.329 211.911 272.851 211.982C272.373 212.053 271.938 212.124 271.549 212.195C271.165 212.26 270.822 212.34 270.521 212.434C270.267 212.523 270.04 212.629 269.839 212.753C269.644 212.877 269.488 213.028 269.369 213.205C269.257 213.382 269.201 213.598 269.201 213.851C269.201 214.1 269.263 214.33 269.387 214.542C269.511 214.749 269.7 214.915 269.954 215.039C270.208 215.163 270.533 215.225 270.929 215.225ZM282.256 205.808C281.789 205.808 281.361 205.693 280.971 205.462C280.587 205.232 280.28 204.925 280.05 204.541C279.82 204.157 279.705 203.729 279.705 203.257H281.175C281.175 203.552 281.281 203.806 281.494 204.018C281.707 204.231 281.961 204.337 282.256 204.337C282.557 204.337 282.811 204.231 283.018 204.018C283.23 203.806 283.337 203.552 283.337 203.257H284.807C284.807 203.729 284.692 204.157 284.462 204.541C284.231 204.925 283.921 205.232 283.531 205.462C283.148 205.693 282.722 205.808 282.256 205.808ZM286.047 206.906V216.474H284.267V209.821L279.483 216.474H277.977V206.906H279.758V213.426L284.55 206.906H286.047ZM290.994 216.474V208.572H287.726V206.906H296.115V208.572H292.846V216.474H290.994ZM305.858 206.906V216.474H304.078V209.821L299.294 216.474H297.788V206.906H299.569V213.426L304.361 206.906H305.858ZM308.325 216.474L308.334 206.906H310.212V211.513L313.968 206.906H316.324L312.356 211.69L316.732 216.474H314.216L310.212 211.867V216.474H308.325ZM321.172 216.474V203.717H329.49V205.462H323.023V208.536H326.328C326.446 208.536 326.596 208.542 326.779 208.554C326.968 208.56 327.146 208.575 327.311 208.598C328.002 208.681 328.584 208.905 329.056 209.272C329.534 209.638 329.895 210.101 330.137 210.662C330.385 211.223 330.509 211.838 330.509 212.505C330.509 213.172 330.388 213.787 330.146 214.348C329.904 214.909 329.543 215.372 329.065 215.738C328.592 216.105 328.008 216.329 327.311 216.412C327.146 216.435 326.971 216.453 326.788 216.465C326.605 216.471 326.452 216.474 326.328 216.474H321.172ZM323.023 214.728H326.257C326.375 214.728 326.505 214.723 326.646 214.711C326.794 214.699 326.933 214.681 327.063 214.658C327.636 214.539 328.037 214.268 328.268 213.843C328.504 213.417 328.622 212.972 328.622 212.505C328.622 212.033 328.504 211.587 328.268 211.167C328.037 210.742 327.636 210.47 327.063 210.352C326.933 210.323 326.794 210.305 326.646 210.299C326.505 210.287 326.375 210.281 326.257 210.281H323.023V214.728ZM334.982 216.739C334.273 216.739 333.679 216.609 333.201 216.35C332.723 216.084 332.359 215.735 332.111 215.304C331.869 214.867 331.748 214.389 331.748 213.869C331.748 213.385 331.834 212.96 332.005 212.594C332.176 212.227 332.43 211.917 332.767 211.663C333.104 211.404 333.517 211.194 334.007 211.034C334.432 210.91 334.914 210.801 335.451 210.707C335.989 210.612 336.553 210.524 337.143 210.441C337.74 210.358 338.33 210.276 338.915 210.193L338.242 210.565C338.253 209.815 338.094 209.26 337.763 208.899C337.438 208.533 336.877 208.35 336.08 208.35C335.578 208.35 335.117 208.468 334.698 208.705C334.279 208.935 333.987 209.319 333.821 209.856L332.094 209.325C332.33 208.504 332.779 207.851 333.44 207.367C334.108 206.883 334.993 206.641 336.098 206.641C336.954 206.641 337.698 206.788 338.33 207.083C338.968 207.373 339.435 207.834 339.73 208.465C339.883 208.778 339.978 209.109 340.013 209.458C340.049 209.806 340.066 210.181 340.066 210.583V216.474H338.428V214.286L338.747 214.569C338.351 215.301 337.846 215.848 337.232 216.208C336.623 216.562 335.873 216.739 334.982 216.739ZM335.309 215.225C335.835 215.225 336.287 215.133 336.665 214.95C337.043 214.761 337.347 214.522 337.577 214.232C337.808 213.943 337.958 213.642 338.029 213.329C338.129 213.045 338.186 212.726 338.197 212.372C338.215 212.018 338.224 211.734 338.224 211.522L338.826 211.743C338.242 211.832 337.71 211.911 337.232 211.982C336.753 212.053 336.319 212.124 335.93 212.195C335.546 212.26 335.203 212.34 334.902 212.434C334.648 212.523 334.421 212.629 334.22 212.753C334.025 212.877 333.868 213.028 333.75 213.205C333.638 213.382 333.582 213.598 333.582 213.851C333.582 214.1 333.644 214.33 333.768 214.542C333.892 214.749 334.081 214.915 334.335 215.039C334.589 215.163 334.914 215.225 335.309 215.225ZM345.069 216.739C344.36 216.739 343.766 216.609 343.288 216.35C342.81 216.084 342.447 215.735 342.199 215.304C341.956 214.867 341.835 214.389 341.835 213.869C341.835 213.385 341.921 212.96 342.092 212.594C342.263 212.227 342.517 211.917 342.854 211.663C343.191 211.404 343.604 211.194 344.094 211.034C344.519 210.91 345.001 210.801 345.538 210.707C346.076 210.612 346.64 210.524 347.23 210.441C347.827 210.358 348.417 210.276 349.002 210.193L348.329 210.565C348.341 209.815 348.181 209.26 347.85 208.899C347.526 208.533 346.964 208.35 346.167 208.35C345.665 208.35 345.205 208.468 344.785 208.705C344.366 208.935 344.074 209.319 343.908 209.856L342.181 209.325C342.417 208.504 342.866 207.851 343.527 207.367C344.195 206.883 345.081 206.641 346.185 206.641C347.041 206.641 347.785 206.788 348.417 207.083C349.055 207.373 349.522 207.834 349.817 208.465C349.971 208.778 350.065 209.109 350.1 209.458C350.136 209.806 350.154 210.181 350.154 210.583V216.474H348.515V214.286L348.834 214.569C348.438 215.301 347.933 215.848 347.319 216.208C346.711 216.562 345.96 216.739 345.069 216.739ZM345.396 215.225C345.922 215.225 346.374 215.133 346.752 214.95C347.13 214.761 347.434 214.522 347.664 214.232C347.895 213.943 348.045 213.642 348.116 213.329C348.216 213.045 348.273 212.726 348.284 212.372C348.302 212.018 348.311 211.734 348.311 211.522L348.913 211.743C348.329 211.832 347.797 211.911 347.319 211.982C346.84 212.053 346.406 212.124 346.017 212.195C345.633 212.26 345.29 212.34 344.989 212.434C344.735 212.523 344.508 212.629 344.307 212.753C344.112 212.877 343.955 213.028 343.837 213.205C343.725 213.382 343.669 213.598 343.669 213.851C343.669 214.1 343.731 214.33 343.855 214.542C343.979 214.749 344.168 214.915 344.422 215.039C344.676 215.163 345.001 215.225 345.396 215.225ZM354.925 216.474V208.572H351.657V206.906H360.046V208.572H356.777V216.474H354.925ZM361.719 216.474V206.906H363.579V210.228H364.837C365.109 210.228 365.401 210.234 365.714 210.246C366.027 210.258 366.293 210.287 366.511 210.335C367.025 210.441 367.471 210.618 367.849 210.866C368.227 211.114 368.516 211.445 368.717 211.858C368.924 212.266 369.027 212.768 369.027 213.364C369.027 214.197 368.812 214.861 368.381 215.357C367.95 215.848 367.365 216.178 366.627 216.35C366.39 216.403 366.11 216.438 365.785 216.456C365.466 216.468 365.171 216.474 364.899 216.474H361.719ZM363.579 214.985H365.006C365.159 214.985 365.33 214.979 365.519 214.968C365.708 214.956 365.883 214.929 366.042 214.888C366.32 214.805 366.571 214.637 366.795 214.383C367.019 214.129 367.132 213.789 367.132 213.364C367.132 212.927 367.019 212.579 366.795 212.319C366.576 212.059 366.299 211.891 365.962 211.814C365.809 211.773 365.646 211.746 365.475 211.734C365.31 211.722 365.153 211.717 365.006 211.717H363.579V214.985ZM370.082 216.474V206.906H371.933V216.474H370.082ZM378.902 216.739C377.986 216.739 377.218 216.518 376.598 216.075C375.978 215.626 375.509 215.021 375.19 214.259C374.871 213.497 374.711 212.638 374.711 211.681C374.711 210.724 374.868 209.865 375.181 209.103C375.5 208.341 375.966 207.742 376.581 207.305C377.201 206.862 377.963 206.641 378.866 206.641C379.764 206.641 380.537 206.862 381.187 207.305C381.843 207.742 382.348 208.341 382.702 209.103C383.056 209.859 383.233 210.718 383.233 211.681C383.233 212.638 383.056 213.5 382.702 214.268C382.353 215.03 381.854 215.632 381.205 216.075C380.561 216.518 379.793 216.739 378.902 216.739ZM374.401 220.726V206.906H376.049V213.789H376.262V220.726H374.401ZM378.645 215.065C379.235 215.065 379.722 214.915 380.106 214.613C380.496 214.312 380.785 213.908 380.974 213.4C381.169 212.886 381.267 212.313 381.267 211.681C381.267 211.055 381.169 210.488 380.974 209.98C380.785 209.472 380.493 209.068 380.097 208.767C379.702 208.465 379.197 208.315 378.583 208.315C378.004 208.315 377.525 208.457 377.148 208.74C376.775 209.024 376.498 209.419 376.315 209.927C376.138 210.435 376.049 211.02 376.049 211.681C376.049 212.343 376.138 212.927 376.315 213.435C376.492 213.943 376.772 214.342 377.156 214.631C377.54 214.92 378.036 215.065 378.645 215.065ZM387.891 216.739C387.183 216.739 386.589 216.609 386.111 216.35C385.632 216.084 385.269 215.735 385.021 215.304C384.779 214.867 384.658 214.389 384.658 213.869C384.658 213.385 384.743 212.96 384.915 212.594C385.086 212.227 385.34 211.917 385.677 211.663C386.013 211.404 386.427 211.194 386.917 211.034C387.342 210.91 387.823 210.801 388.361 210.707C388.898 210.612 389.462 210.524 390.053 210.441C390.649 210.358 391.24 210.276 391.824 210.193L391.151 210.565C391.163 209.815 391.004 209.26 390.673 208.899C390.348 208.533 389.787 208.35 388.99 208.35C388.488 208.35 388.027 208.468 387.608 208.705C387.188 208.935 386.896 209.319 386.731 209.856L385.003 209.325C385.24 208.504 385.688 207.851 386.35 207.367C387.017 206.883 387.903 206.641 389.007 206.641C389.864 206.641 390.608 206.788 391.24 207.083C391.878 207.373 392.344 207.834 392.639 208.465C392.793 208.778 392.888 209.109 392.923 209.458C392.958 209.806 392.976 210.181 392.976 210.583V216.474H391.337V214.286L391.656 214.569C391.26 215.301 390.756 215.848 390.141 216.208C389.533 216.562 388.783 216.739 387.891 216.739ZM388.219 215.225C388.745 215.225 389.196 215.133 389.574 214.95C389.952 214.761 390.256 214.522 390.487 214.232C390.717 213.943 390.868 213.642 390.939 213.329C391.039 213.045 391.095 212.726 391.107 212.372C391.125 212.018 391.133 211.734 391.133 211.522L391.736 211.743C391.151 211.832 390.62 211.911 390.141 211.982C389.663 212.053 389.229 212.124 388.839 212.195C388.455 212.26 388.113 212.34 387.812 212.434C387.558 212.523 387.33 212.629 387.129 212.753C386.935 212.877 386.778 213.028 386.66 213.205C386.548 213.382 386.492 213.598 386.492 213.851C386.492 214.1 386.554 214.33 386.678 214.542C386.802 214.749 386.991 214.915 387.245 215.039C387.499 215.163 387.823 215.225 388.219 215.225ZM395.099 218.591L395.214 217.767C395.468 217.785 395.666 217.737 395.808 217.625C395.95 217.513 396.044 217.357 396.091 217.156C396.139 216.955 396.148 216.728 396.118 216.474H395.099V214.339H397.057V216.651C397.057 217.348 396.889 217.873 396.552 218.228C396.221 218.582 395.737 218.703 395.099 218.591ZM403.608 216.465L403.617 214.817L409.171 209.839C409.62 209.443 409.924 209.065 410.083 208.705C410.249 208.344 410.331 207.984 410.331 207.624C410.331 207.169 410.231 206.762 410.03 206.401C409.829 206.035 409.552 205.746 409.198 205.533C408.843 205.321 408.436 205.214 407.975 205.214C407.503 205.214 407.08 205.327 406.708 205.551C406.342 205.769 406.056 206.062 405.849 206.428C405.642 206.794 405.542 207.19 405.548 207.615H403.652C403.652 206.788 403.838 206.065 404.21 205.445C404.588 204.819 405.105 204.331 405.76 203.983C406.416 203.629 407.166 203.451 408.01 203.451C408.814 203.451 409.534 203.635 410.172 204.001C410.81 204.361 411.312 204.857 411.678 205.489C412.05 206.121 412.236 206.841 412.236 207.65C412.236 208.235 412.159 208.731 412.006 209.139C411.852 209.546 411.622 209.924 411.315 210.273C411.008 210.621 410.624 210.999 410.163 211.406L405.876 215.233L405.672 214.702H412.236V216.465H403.608ZM418.143 216.739C417.488 216.739 416.876 216.607 416.309 216.341C415.748 216.069 415.267 215.697 414.866 215.225C414.464 214.746 414.177 214.197 414.006 213.577L415.787 213.098C415.887 213.476 416.058 213.804 416.301 214.082C416.549 214.359 416.838 214.575 417.169 214.728C417.499 214.876 417.842 214.95 418.196 214.95C418.663 214.95 419.085 214.838 419.463 214.613C419.847 214.389 420.148 214.088 420.367 213.71C420.591 213.332 420.703 212.915 420.703 212.461C420.703 211.994 420.588 211.572 420.358 211.194C420.133 210.816 419.829 210.518 419.445 210.299C419.067 210.075 418.651 209.963 418.196 209.963C417.677 209.963 417.237 210.066 416.876 210.273C416.516 210.479 416.236 210.718 416.035 210.99L414.423 210.423L414.812 203.717H421.696V205.462H415.76L416.513 204.763L416.203 209.785L415.84 209.316C416.177 208.979 416.578 208.722 417.045 208.545C417.511 208.368 417.975 208.279 418.436 208.279C419.227 208.279 419.933 208.462 420.553 208.829C421.179 209.195 421.672 209.694 422.032 210.326C422.392 210.952 422.573 211.663 422.573 212.461C422.573 213.252 422.369 213.973 421.961 214.622C421.554 215.266 421.013 215.78 420.34 216.164C419.667 216.547 418.935 216.739 418.143 216.739Z" fill="white"/>
<path d="M230.581 107.159C239.156 102.921 249.485 102.837 257.92 107.345C293.05 126.12 263.94 167.489 244.292 188.054C223.741 167.37 191.697 126.374 230.581 107.159ZM243.324 120.906C235.747 120.906 229.606 127.048 229.606 134.625C229.606 142.201 235.747 148.343 243.324 148.343C250.9 148.343 257.042 142.201 257.042 134.625C257.042 127.048 250.9 120.906 243.324 120.906Z" fill="url(#paint5_linear_533_428)"/>
<defs>
<clipPath id="paint0_diamond_533_428_clip_path"><rect x="453.636" width="11.8115" height="564"/></clipPath><clipPath id="paint1_diamond_533_428_clip_path"><rect x="173.113" width="11.8115" height="564"/></clipPath><linearGradient id="paint0_diamond_533_428" x1="0" y1="0" x2="500" y2="500" gradientUnits="userSpaceOnUse">
<stop stop-color="white"/>
<stop offset="1" stop-color="#ECECEC" stop-opacity="0.03"/>
</linearGradient>
<linearGradient id="paint1_diamond_533_428" x1="0" y1="0" x2="500" y2="500" gradientUnits="userSpaceOnUse">
<stop stop-color="white"/>
<stop offset="1" stop-color="#ECECEC" stop-opacity="0.03"/>
</linearGradient>
<linearGradient id="paint2_linear_533_428" x1="3.13743" y1="221.835" x2="3.13743" y2="528.934" gradientUnits="userSpaceOnUse">
<stop stop-color="#515151" stop-opacity="0"/>
<stop offset="0.65" stop-color="#B7B7B7"/>
<stop offset="0.982897" stop-color="#B7B7B7" stop-opacity="0"/>
</linearGradient>
<linearGradient id="paint3_linear_533_428" x1="363.758" y1="-41.1556" x2="363.758" y2="432.597" gradientUnits="userSpaceOnUse">
<stop stop-color="#515151" stop-opacity="0"/>
<stop offset="1" stop-color="#B7B7B7"/>
</linearGradient>
<linearGradient id="paint4_linear_533_428" x1="600.542" y1="421.893" x2="600.542" y2="1016.53" gradientUnits="userSpaceOnUse">
<stop stop-color="#ECECEC" stop-opacity="0.03"/>
<stop offset="0.150057" stop-color="white"/>
</linearGradient>
<linearGradient id="paint5_linear_533_428" x1="278.957" y1="103.548" x2="202.444" y2="112.068" gradientUnits="userSpaceOnUse">
<stop stop-color="#FF5353"/>
<stop offset="1" stop-color="#2F2F2F"/>
</linearGradient>
</defs>
</svg>
