<svg width="648" height="156" viewBox="0 0 648 156" fill="none" xmlns="http://www.w3.org/2000/svg">
<g clip-path="url(#clip0_476_195)">
<path d="M547.954 149.054C547.841 146.855 547.716 145.436 547.716 144.016C547.691 98.6196 547.678 53.2352 547.666 7.83834C547.666 7.21027 547.428 6.43147 547.703 5.97926C548.994 3.93175 550.422 1.98473 551.801 3.05176e-05C553.655 1.8968 556.913 3.66796 557.101 5.72803C557.765 12.8755 557.352 20.136 557.352 28.2129C578.628 2.62536 604.854 -1.01744 625.478 18.0005C643.71 34.8077 644.186 62.4051 626.569 80.0664C607.46 99.2225 579.668 96.3836 557.703 72.3537C557.703 83.6338 557.703 94.1854 557.703 104.737C557.703 113.517 557.126 122.361 557.853 131.078C558.53 139.243 555.222 144.531 547.941 149.066L547.954 149.054ZM628.022 49.4417C628.147 31.9562 613.913 18.5155 595.055 18.3146C577.225 18.1387 561.65 32.1572 561.462 48.5498C561.274 65.7966 575.984 80.0413 594.203 80.2548C613.612 80.4809 627.897 67.4673 628.022 49.4417Z" fill="white"/>
<path d="M266.944 25.5122C266.944 47.8338 267.019 68.2963 266.869 88.7589C266.844 92.7659 268.698 98.7954 261.944 98.9085C255.203 99.0341 256.707 93.0172 256.682 88.9598C256.544 63.8496 256.519 38.7394 256.757 13.6291C256.782 11.142 258.824 8.67994 259.939 6.20534C262.471 7.51173 265.728 8.19004 267.42 10.1999C286.353 32.7727 305.048 55.5591 323.818 78.2826C324.307 78.873 324.871 79.4132 326.124 80.7572C326.324 78.0817 326.55 76.3356 326.563 74.577C326.613 54.2778 326.613 33.9786 326.675 13.6794C326.675 12.0213 326.4 10.024 327.189 8.78043C328.166 7.23537 330.272 5.18787 331.6 5.37629C333.329 5.62752 335.108 7.63734 336.248 9.30801C336.95 10.338 336.537 12.1469 336.537 13.6166C336.549 38.7268 336.562 63.8496 336.549 88.9598C336.549 92.678 337.326 97.6146 332.677 98.3055C330.146 98.6824 326.362 95.944 324.345 93.5699C305.487 71.5246 286.904 49.2407 266.944 25.5122Z" fill="white"/>
<path d="M499.274 3.57999C496.242 39.6689 511.441 68.6983 527.229 97.803C521.252 100.604 516.967 99.9762 513.997 94.0597C511.479 89.0477 508.659 84.1739 505.765 78.8479C504.712 79.5639 503.597 80.0663 502.82 80.8828C490.29 93.9467 474.389 99.2853 456.947 101.132C451.058 101.76 446.472 99.436 446.234 93.4442C445.946 86.2842 445.808 78.5715 448.063 71.9517C456.684 46.6656 473.299 26.605 492.157 8.26539C493.736 6.7329 495.879 5.79079 499.287 3.59255L499.274 3.57999ZM487.947 25.9016C475.053 41.7792 462.41 57.1418 457.21 78.5967C470.743 73.5847 481.644 67.015 491.919 59.1642C494.939 56.8529 495.202 54.7174 494.2 51.2379C491.907 43.274 490.19 35.1342 487.96 25.9142L487.947 25.9016ZM458.213 83.5961C459.027 91.5349 459.904 92.3011 467.034 91.6856C479.452 90.6179 489.338 84.6261 498.309 76.3607C502.219 72.7682 502.344 69.766 499.5 66.186C492.608 69.9167 486.306 73.9741 479.489 76.8381C472.66 79.7146 465.33 81.3853 458.2 83.5961H458.213Z" fill="white"/>
<path d="M209.894 4.19554C208.252 21.8066 210.62 37.8852 216.71 53.1599C222.712 68.221 229.679 82.8927 236.382 98.0794C232.335 99.9888 228.1 100.529 225.105 94.8763C222.374 89.7261 219.542 84.6387 216.535 79.1243C215.394 79.9785 214.179 80.6693 213.252 81.624C200.596 94.6878 184.47 99.4737 167.04 101.069C161.677 101.559 158.332 98.921 157.179 93.595C154.911 83.0434 157.68 73.1953 161.991 63.8245C171.275 43.6886 184.72 26.4292 200.02 10.5642C201.461 9.08193 203.177 7.83835 204.894 6.67014C206.047 5.87877 207.413 5.40144 209.894 4.18298V4.19554ZM168.657 78.7474C182.565 73.4591 194.344 66.7136 204.681 57.5438C205.533 56.7901 205.621 54.5667 205.308 53.1975C203.303 44.3669 201.085 35.5865 198.967 26.9065C187.891 35.9131 172.579 61.5509 168.669 78.76L168.657 78.7474ZM211.234 67.4799C196.925 73.4088 183.292 79.0615 169.408 84.8146C170.661 91.9871 170.799 92.163 178.418 91.5224C190.321 90.53 200.045 85.0281 208.829 77.1521C212.625 73.7354 213.64 70.683 211.234 67.4799Z" fill="white"/>
<path d="M144.925 98.5065C140.877 100.403 136.655 100.956 133.647 95.3034C131.091 90.4798 128.435 85.7064 125.641 80.5814L121.017 70.5448C120.917 69.967 120.704 69.3892 120.378 68.7988C120.378 68.7862 120.365 68.7737 120.365 68.7611C119.075 65.2942 116.13 60.8977 114.138 54.5793C114.138 54.5793 113.875 53.8005 113.875 53.7879C113.875 53.7251 113.862 53.6623 113.85 53.6121C111.845 44.7814 109.627 36.001 107.509 27.3211C96.4326 36.3276 81.1207 61.9654 77.1988 79.1619C77.0985 79.2122 77.299 79.1243 77.1988 79.1619C77.2489 80.6944 77.7501 82.7545 78.0383 85.204L77.9631 85.2417C78.0508 85.7316 78.126 86.1963 78.2137 86.6234C78.2137 86.6485 78.2137 86.6737 78.2137 86.7113C78.7024 90.6682 79.3665 95.1149 79.9805 98.607C79.9805 98.6321 79.9805 98.6572 79.9805 98.6824C75.9332 100.567 71.7231 101.119 68.7158 95.4666C67.4878 93.1428 66.2223 90.8189 64.9442 88.4699C63.5659 85.9577 62.15 83.3951 60.709 80.7447L56.0853 70.7081C55.9851 70.1303 55.7721 69.5525 55.4463 68.9621C55.4463 68.9495 55.4463 68.937 55.4463 68.9244C54.1557 65.4575 51.1735 57.6568 48.9682 53.9638C48.9682 53.9638 48.9557 53.9638 48.9557 53.9512C48.9557 53.8884 48.9557 53.8256 48.9306 53.7754C46.9258 44.9447 44.7079 36.1643 42.5903 27.4844C31.5136 36.4909 16.2017 62.1287 12.2797 79.3252C12.38 79.2876 12.1795 80.4432 12.2797 80.393C12.3298 81.9255 12.2421 81.0838 12.5303 83.5333C12.5303 83.5333 13.0691 85.3924 13.0441 85.405C13.1318 85.8949 13.207 86.3596 13.2947 86.7867C13.2947 86.8118 13.2947 86.837 13.3072 86.8747C13.9086 91.7862 14.7983 97.4388 15.5 101.119C13.8961 101.333 12.2922 101.509 10.6633 101.659C5.28786 102.149 1.95482 99.5114 0.802044 94.1854C-1.46592 83.6464 1.30325 73.7857 5.61365 64.4274C14.886 44.2789 28.3309 27.0196 43.6428 11.1545C45.0713 9.67229 46.8005 8.42871 48.5171 7.2605C49.6699 6.46913 51.0357 5.9918 53.5167 4.77334C51.8752 22.3844 54.2434 38.463 60.3331 53.7377C62.6637 59.5913 65.1447 65.3821 67.7009 71.1729C68.5153 68.8365 69.4801 66.5377 70.5201 64.2641C79.7925 44.1156 93.2374 26.8563 108.549 10.9912C109.978 9.50899 111.707 8.26541 113.424 7.0972C114.576 6.30584 115.942 5.8285 118.423 4.61005C116.782 22.2211 119.15 38.2997 125.24 53.5744C131.254 68.6355 138.221 83.3072 144.912 98.5065H144.925Z" fill="white"/>
<path d="M416.191 26.6302C408.823 23.4773 402.596 19.7843 395.879 18.2769C391.156 17.2217 385.191 17.988 380.856 20.136C377.397 21.8569 374.415 26.5674 373.338 30.5243C372.047 35.285 375.23 39.5308 379.891 41.4276C384.677 43.3871 389.752 44.6307 394.714 46.1758C400.265 47.9092 406.029 49.1402 411.342 51.4264C420.138 55.2074 425.012 62.2669 425.376 71.9392C425.752 82.0386 422.08 90.4924 413.434 96.0445C397.396 106.345 369.691 101.207 358.377 85.807C357.086 84.0484 356.322 80.5061 357.211 78.76C359.617 74.0495 362.562 74.0369 366.383 78.1696C374.879 87.352 385.116 92.2258 397.671 90.1658C401.568 89.5251 405.753 87.5907 408.71 84.9905C416.354 78.3204 414.988 66.9523 405.854 62.6312C399.726 59.7295 392.81 58.4985 386.269 56.4635C381.708 55.0441 376.909 54.0643 372.686 51.954C359.316 45.2839 356.084 28.3386 365.845 16.9077C375.154 5.99185 387.371 3.93178 400.591 6.74553C405.59 7.81325 410.49 10.0743 414.975 12.6117C424.285 17.8875 424.223 20.3495 416.178 26.5925L416.191 26.6302Z" fill="white"/>
</g>
<defs>
<clipPath id="clip0_476_195">
<rect width="648" height="156" fill="white"/>
</clipPath>
</defs>
</svg>
