<svg width="924" height="929" viewBox="0 0 924 929" fill="none" xmlns="http://www.w3.org/2000/svg">
<path d="M462.286 0.586889L462.286 0.794803L462.095 0.881412C427.773 18.1564 419.594 52.2875 418.778 77.8769C417.997 102.427 423.644 124.014 424.995 128.761C420.612 126.595 399.545 118.246 336.464 118.232C311.169 118.233 291.868 126.169 279.029 141.814C255.812 170.125 262.03 212.485 264.489 224.785C268.871 246.702 285.798 257.876 299.242 263.384C313.76 269.343 327.447 270.14 327.568 270.157C358.979 272.598 379.301 266.897 387.965 253.244C400.423 233.545 383.723 203.885 383.567 203.591L383.272 203.088L382.891 203.539C373.552 214.159 365.392 218.959 357.959 218.214C350.18 217.435 343.008 210.679 334.727 196.334C329.807 187.81 332.216 176.497 340.671 168.18C351.916 157.143 375.479 150.558 404.844 168.281C429.878 183.37 434.641 206.117 434.242 222.49C433.808 239.694 427.761 253.745 427.293 254.802L372.369 310.28L372.092 310.557L437.144 381.397C440.556 404.595 436.831 420.967 426.089 430.081C408.763 444.774 378.686 435.35 378.392 435.264L377.941 435.125L311.104 374.213L310.809 373.953L255.037 429.172C225.514 442.825 197.204 438.565 177.385 417.498C159.178 398.147 152.232 367.88 161.866 350.035C168.069 338.565 180.422 333.8 196.603 336.641C210.914 344.921 217.653 352.076 218.432 359.855C219.159 367.305 214.377 375.448 203.756 384.787L203.323 385.151L203.825 385.445C227.803 399.928 243.292 395.804 252.059 389.809C264.828 381.094 272.157 362.573 272.158 341.089C272.159 335.58 271.674 329.863 270.687 324.093C265.525 294.121 248.461 272.552 225.055 266.368C212.754 263.908 170.394 257.691 142.084 280.908C126.386 293.799 118.433 313.117 118.449 338.394C118.446 401.458 126.813 422.543 128.978 426.926C124.231 425.575 102.644 419.928 78.0944 420.709C52.4877 421.542 18.3219 429.721 1.08158 464.043L0.994943 464.234L0.787038 464.234L0.89098 464.442L0.787018 464.649L0.994921 464.649L1.08154 464.84C18.3184 499.16 52.4833 507.336 78.0726 508.149C102.622 508.927 124.21 503.278 128.957 501.927C126.809 506.327 118.439 527.413 118.436 590.477C118.435 615.771 126.369 635.071 142.013 647.908C170.321 671.123 212.682 664.901 225 662.423C248.389 656.254 265.456 634.683 270.62 604.71C271.625 598.923 272.094 593.223 272.094 587.714C272.095 566.231 264.75 547.693 251.999 538.996C243.233 533.002 227.744 528.914 203.765 543.365L203.263 543.659L203.696 544.023C214.316 553.361 219.097 561.504 218.369 568.953C217.589 576.733 210.849 583.888 196.538 592.17C180.339 594.995 168.004 590.249 161.802 578.78C152.17 560.935 159.136 530.685 177.329 511.315C197.15 490.246 225.425 485.983 254.981 499.633L310.748 554.846L378.943 492.229C382.512 491.189 410.181 483.79 426.328 497.823C436.861 507.005 440.481 523.342 437.067 546.402L436.893 547.58L372.301 617.924L372.041 618.219L427.254 673.986C427.722 675.042 433.768 689.058 434.2 706.262C434.632 722.669 429.849 745.4 404.796 760.509C375.429 778.234 351.867 771.652 340.623 760.616C332.135 752.301 329.762 740.987 334.682 732.463C342.982 718.1 350.138 711.36 357.917 710.58C365.349 709.835 373.509 714.633 382.847 725.253L383.228 725.704L383.523 725.201C383.679 724.907 400.399 695.228 387.926 675.547C379.281 661.878 358.959 656.179 327.548 658.623C327.41 658.623 313.74 659.438 299.221 665.399C285.776 670.909 268.849 682.085 264.465 704.001C261.987 716.32 255.765 758.68 278.979 786.988C291.816 802.632 311.133 810.584 336.411 810.565C399.475 810.562 420.56 802.193 424.943 800.027C423.592 804.774 417.943 826.361 418.721 850.911C419.534 876.501 427.727 910.648 462.03 927.902L462.221 927.989L462.221 928.197L462.429 928.093L462.636 928.197L462.636 927.989L462.827 927.902C497.149 910.627 505.328 876.496 506.144 850.907C506.925 826.357 501.278 804.77 499.927 800.023C504.31 802.188 525.377 810.538 588.458 810.552C613.753 810.551 633.054 802.615 645.893 786.97C659.632 770.215 663.064 748.559 663.065 731.095C663.065 719.036 661.437 709.023 660.433 703.998C656.051 682.082 639.124 670.908 625.68 665.399C611.162 659.44 597.475 658.644 597.354 658.627C565.943 656.185 545.621 661.886 536.957 675.539C524.482 695.221 541.199 724.899 541.355 725.193L541.65 725.696L542.031 725.245C551.37 714.624 559.53 709.825 566.963 710.569C574.742 711.349 581.914 718.105 590.195 732.45C595.115 740.974 592.723 752.304 584.251 760.604C573.006 771.64 549.444 778.225 520.078 760.503C495.044 745.414 490.298 722.684 490.68 706.294C491.114 689.09 497.161 675.039 497.629 673.982L552.553 618.504L552.83 618.227L487.968 547.578L487.795 546.4C484.418 523.548 487.936 507.279 498.279 498.044C513.093 484.824 537.435 489.934 544.728 491.857L612.987 554.536L613.281 554.796L669.054 499.577C698.577 485.924 726.886 490.184 746.705 511.251C764.913 530.602 771.859 560.869 762.225 578.714C756.022 590.184 743.669 594.949 727.487 592.108C713.177 583.828 706.438 576.673 705.659 568.894C704.931 561.444 709.713 553.301 720.334 543.962L720.767 543.598L720.265 543.304C696.288 528.821 680.799 532.945 672.032 538.94C655.988 549.891 648.52 576.312 653.404 604.656C658.565 634.628 675.629 656.197 699.036 662.381C711.336 664.841 753.696 671.058 782.007 647.841C797.652 635.002 805.588 615.701 805.589 590.407C805.593 527.343 797.226 506.258 795.06 501.875C799.807 503.226 821.394 508.873 845.944 508.092C871.533 507.277 905.682 499.08 922.94 464.775L923.026 464.585H923.234L923.13 464.377L923.234 464.169H923.026L922.94 463.978C905.668 429.658 871.538 421.482 845.949 420.669C821.399 419.891 799.811 425.54 795.064 426.892C797.23 422.508 805.582 401.44 805.602 338.359C805.604 313.064 797.67 293.764 782.026 280.927C753.717 257.713 711.357 263.935 699.038 266.413C675.649 272.582 658.583 294.153 653.418 324.126C648.531 352.47 656.014 378.908 672.039 389.839C680.806 395.833 696.294 399.921 720.273 385.471L720.776 385.176L720.342 384.812C709.723 375.475 704.941 367.332 705.669 359.882C706.449 352.103 713.189 344.948 727.5 336.665C743.699 333.84 756.035 338.587 762.237 350.056C771.869 367.9 764.902 398.151 746.71 417.521C726.889 438.59 698.614 442.853 669.058 429.202L613.29 373.99L546.447 435.359C544.645 435.914 515.711 444.474 498.837 430.164C488.096 421.051 484.372 404.679 487.786 381.481L552.569 310.912L552.829 310.617L497.616 254.85C497.148 253.793 491.102 239.777 490.67 222.574C490.273 206.167 495.021 183.436 520.074 168.327C549.441 150.602 573.003 157.184 584.247 168.22C592.736 176.535 595.108 187.848 590.188 196.373C581.888 210.736 574.733 217.476 566.953 218.256C559.521 219.001 551.361 214.202 542.023 203.582L541.642 203.132L541.348 203.634C541.192 203.929 524.471 233.608 536.944 253.289C545.589 266.958 565.911 272.657 597.322 270.212C597.461 270.212 611.13 269.397 625.649 263.437C639.094 257.927 656.021 246.751 660.405 224.834C661.41 219.81 663.057 209.779 663.04 197.738C663.041 180.274 659.612 158.617 645.874 141.865C633.037 126.221 613.719 118.269 588.442 118.288C525.378 118.291 504.293 126.66 499.909 128.826C501.261 124.079 506.91 102.492 506.132 77.9418C505.319 52.3524 497.126 18.2048 462.823 0.95066L462.632 0.864027L462.632 0.656155L462.424 0.760114L462.286 0.586889ZM497.857 618.212L462.46 652.535L427.066 618.216L462.464 579.284L497.857 618.212ZM613.322 429.015L647.642 464.408L613.319 499.806L574.391 464.412L613.322 429.015ZM349.717 464.424L310.786 499.821L276.466 464.427L310.789 429.03L349.717 464.424ZM497.873 310.62L462.476 349.552L427.082 310.624L462.479 276.301L497.873 310.62Z" fill="white" fill-opacity="0.05"/>
</svg>
