<svg width="72" height="187" viewBox="0 0 72 187" fill="none" xmlns="http://www.w3.org/2000/svg">
<path d="M54.7629 167.053C51.4416 156.663 53.3785 149.185 57.808 141.565C57.808 141.565 47.8473 146.83 37.6103 139.902C37.6103 139.902 50.4764 137.546 56.4236 127.019C62.3707 116.493 57.6682 100.285 44.9419 98.3452C32.2156 96.4058 27.7861 100.701 25.0204 106.239C22.2548 111.778 22.9438 118.845 29.5865 122.447C36.2291 126.05 44.5259 120.925 43.837 115.66C43.1448 110.395 35.3972 109.148 31.7996 115.8C31.7996 115.8 27.3733 106.103 38.1628 103.747C48.9522 101.391 52.9657 113.027 52.2735 117.459C51.5813 121.891 50.3366 126.879 41.8968 131.035C33.457 135.19 21.4229 132.144 16.1647 121.754C10.9064 111.364 16.4409 101.391 18.9303 99.3149C18.9303 99.3149 10.055 104.531 0.123498 93.5651L4.08986e-06 93.5651C0.0227529 93.5423 0.0422519 93.5195 0.0617509 93.4967C0.039002 93.474 0.0195031 93.4512 4.08389e-06 93.4284L0.126747 93.4284C10.0582 82.4625 18.9335 87.6786 18.9335 87.6786C16.4441 85.5993 10.9097 75.6259 16.1679 65.2391C21.4261 54.8524 33.4603 51.8034 41.9001 55.9588C50.3399 60.1141 51.5846 65.1025 52.2768 69.5344C52.969 73.9663 48.9554 85.6026 38.166 83.2467C27.3766 80.8908 31.8028 71.1939 31.8028 71.1939C35.4004 77.8418 43.148 76.5955 43.8402 71.3339C44.5324 66.0689 36.2324 60.9439 29.5897 64.546C22.9471 68.1482 22.2581 75.2126 25.0237 80.7541C27.7893 86.2957 32.2188 90.5877 44.9452 88.6483C57.6715 86.7089 62.3772 70.5008 56.4268 59.9742C50.4764 49.4475 37.6135 47.0917 37.6135 47.0917C47.8505 40.1672 57.8112 45.4289 57.8112 45.4289C53.385 37.8113 51.4481 30.3304 54.7661 19.9404C58.0842 9.55695 69.4554 -3.03599e-06 69.4554 -3.03599e-06C63.2579 12.3293 64.0314 34.6289 66.524 42.1098C69.0134 49.5907 71.09 59.5642 69.4294 68.568C67.7687 77.5717 59.8846 88.5149 59.8846 88.5149C68.032 88.0138 71.363 92.5726 71.9155 93.4317L72 93.4317C72 93.4317 71.987 93.4577 71.9577 93.5C71.9837 93.5456 72 93.5683 72 93.5683L71.9155 93.5683C71.363 94.4274 68.032 98.9862 59.8846 98.4851C59.8846 98.4851 67.7687 109.428 69.4294 118.432C71.09 127.436 69.0134 137.409 66.524 144.89C64.0347 152.371 63.258 174.671 69.4554 187C69.4554 187 58.0842 177.443 54.7629 167.053Z" fill="white"/>
</svg>
