<svg width="72" height="187" viewBox="0 0 72 187" fill="none" xmlns="http://www.w3.org/2000/svg">
<path d="M17.2371 167.053C20.5584 156.663 18.6215 149.185 14.192 141.565C14.192 141.565 24.1527 146.83 34.3897 139.902C34.3897 139.902 21.5236 137.546 15.5764 127.019C9.62925 116.493 14.3318 100.285 27.0581 98.3452C39.7844 96.4058 44.2139 100.701 46.9796 106.239C49.7452 111.778 49.0562 118.845 42.4135 122.447C35.7709 126.05 27.4741 120.925 28.163 115.66C28.8552 110.395 36.6028 109.148 40.2004 115.8C40.2004 115.8 44.6267 106.103 33.8372 103.747C23.0478 101.391 19.0343 113.027 19.7265 117.459C20.4187 121.891 21.6634 126.879 30.1032 131.035C38.543 135.19 50.5771 132.144 55.8353 121.754C61.0936 111.364 55.5591 101.391 53.0697 99.3149C53.0697 99.3149 61.945 104.531 71.8765 93.5651L72 93.5651C71.9772 93.5423 71.9577 93.5195 71.9382 93.4967C71.961 93.474 71.9805 93.4512 72 93.4284L71.8733 93.4284C61.9418 82.4625 53.0665 87.6786 53.0665 87.6786C55.5559 85.5993 61.0903 75.6259 55.8321 65.2391C50.5739 54.8524 38.5397 51.8034 30.0999 55.9588C21.6601 60.1141 20.4154 65.1025 19.7232 69.5344C19.031 73.9663 23.0446 85.6026 33.834 83.2467C44.6234 80.8908 40.1972 71.1939 40.1972 71.1939C36.5996 77.8418 28.852 76.5955 28.1598 71.3339C27.4676 66.0689 35.7676 60.9439 42.4103 64.546C49.0529 68.1482 49.7419 75.2126 46.9763 80.7541C44.2107 86.2957 39.7812 90.5877 27.0548 88.6483C14.3285 86.7089 9.62275 70.5008 15.5732 59.9742C21.5236 49.4475 34.3865 47.0917 34.3865 47.0917C24.1495 40.1672 14.1888 45.4289 14.1888 45.4289C18.615 37.8113 20.5519 30.3304 17.2339 19.9404C13.9158 9.55695 2.54462 -3.03599e-06 2.54462 -3.03599e-06C8.74205 12.3293 7.9686 34.6289 5.47597 42.1098C2.9866 49.5907 0.909963 59.5642 2.57062 68.568C4.23128 77.5717 12.1154 88.5149 12.1154 88.5149C3.96804 88.0138 0.636974 92.5726 0.0845067 93.4317L3.54537e-06 93.4317C3.54537e-06 93.4317 0.013004 93.4577 0.0422551 93.5C0.0162542 93.5456 3.53939e-06 93.5683 3.53939e-06 93.5683L0.0845067 93.5683C0.636974 94.4274 3.96804 98.9862 12.1154 98.4851C12.1154 98.4851 4.23128 109.428 2.57062 118.432C0.90996 127.436 2.9866 137.409 5.47597 144.89C7.96534 152.371 8.74205 174.671 2.54462 187C2.54462 187 13.9158 177.443 17.2371 167.053Z" fill="white"/>
</svg>
